<?xml version="1.0" encoding="utf-8"?>
<!-- Generator: Adobe Illustrator 15.0.0, SVG Export Plug-In . SVG Version: 6.00 Build 0)  -->
<!DOCTYPE svg PUBLIC "-//W3C//DTD SVG 1.1//EN" "http://www.w3.org/Graphics/SVG/1.1/DTD/svg11.dtd">
<svg version="1.1" id="Layer_1" xmlns="http://www.w3.org/2000/svg" xmlns:xlink="http://www.w3.org/1999/xlink" x="0px" y="0px"
	 width="612px" height="792px" viewBox="0 0 612 792" enable-background="new 0 0 612 792" xml:space="preserve">
<g>
	<g id="XMLID_2_">
		<g>
			<path d="M377.328,282.857c-1.777-6.588-4.79-26.563-15.063-22.089c-5.026,2.189-1.437,9.882,0,15.059
				c10.811,38.87,22.204,75.114,33.141,113.968c9.364,33.286,19.352,64.86,28.616,97.905c3.033,10.826,7.256,26.302,8.034,29.636
				c4.775,15.998-68.776,5.006-68.776,5.006s-0.011,123.881-0.011,175.726c0,8.817,0.884,18.68-1.004,24.6
				c-2.285,7.17-7.753,13.713-14.055,16.068c-18.287,6.823-33.858-4.213-37.152-19.081c-1.557-7.025-0.502-16.601-0.502-25.604
				c0-45.317,0-83.569,0-130.539c0-8.084,0.813-15.42,0.502-23.595c-0.291-7.603,0.401-18.584-5.021-19.583
				c-10.379-1.913-9.43,11.68-9.039,20.587c2.24,50.886-0.11,73.09,0,118.99c0.021,8.154,0,18.367,0,28.616
				c0,9.922,1.15,20.517-0.502,27.612c-2.204,9.475-9.39,17.82-17.067,21.089c-20.783,8.838-42.792-1.803-47.195-20.085
				c-1.788-7.401-0.502-18.348-0.502-28.616c0-66.693-1.004-135.521-1.004-199.823c0-56.55,0.502-130.327,0.502-196.307
				c0-7.672,3.078-24.198-7.03-23.098c-6.473,0.708-5.523,7.306-5.523,16.57c0,38.463,0,70.921,0,109.952
				c0,15.631,1.592,33.241-1.506,42.173c-2.913,8.411-11.389,16.776-23.595,16.57c-11.097-0.19-21.075-9.028-23.6-19.081
				c-1.537-6.126-0.502-16.063-0.502-24.097c0-41.396-1.677-81.405,0-122.002c0.869-20.994-1.315-44.68,5.523-62.259
				c8.858-22.767,29.947-43.57,58.744-45.684c22.651-1.667,41.185,0.502,62.756,0.502c29.515,0,58.177-2.254,77.318,7.527
				c13.121,6.708,24.876,18.599,32.634,33.643c3.465,6.708,5.106,14.17,7.531,22.088c6.583,21.476,13.458,44.438,21.09,67.777
				c7.075,21.652,14.707,44.308,20.582,68.285c1.959,7.979,6.172,16.767,5.523,24.098c-1.597,18.111-24.237,28.36-38.658,16.068
				c-7.262-6.191-8.999-18.951-12.554-30.128c-6.327-19.899-10.705-37.549-18.071-58.739c-4.47-12.845-5.86-24.072-11.047-40.166
				C379.834,289.265,378.293,286.433,377.328,282.857z"/>
			<path d="M359.759,110.145c0.628,18.94-10.429,38.363-23.6,47.195c-3.184,2.139-9.987,6.287-13.558,7.532
				c-10.59,3.706-24.74,3.52-34.642,1.004c-7.14-1.813-18.554-8.948-23.595-13.558c-3.038-2.777-7.1-8.235-9.038-11.544
				c-15.973-27.276-4.243-60.964,16.068-74.813c6.357-4.333,14.582-7.11,23.093-9.535c5.021-1.437,16.168-0.723,21.089,0.502
				c16.471,4.103,28.069,14.888,36.65,26.608C355.817,93.359,359.428,100.218,359.759,110.145z"/>
		</g>
		<g>
		</g>
	</g>
</g>
</svg>
